# File created by Blade
# Date/Time:  Tue Jan 27 19:58:31 2015
# Frame Rate: 120.000 fps
#------------------------------------------------------
:FULLY-SPECIFIED
:DEGREES
3630
root 4.850013 32.115455 4.631475 -2.013731 0.016166 0.693276
Spine 2.011666 6.842373 -1.003731
Head -5.269137 -8.687301 4.870619
LeftShoulder -13.762594 -4.375124 36.405961
LeftArm 11.342634 -17.364897 -52.611816
LeftForeArm 12.075573 0.000000 18.488706
LeftHand 7.096283 -0.000000 1.224932
LeftHandThumb1 -26.253704 0.000000 33.147579
RightShoulder -20.143482 -20.068244 -39.396590
RightArm 13.563055 22.314256 46.130459
RightForeArm -14.138571 -0.000000 9.388771
RightHand 18.188827 -0.000000 8.787681
RightHandThumb1 -24.326973 -0.000000 -32.862282
LeftUpLeg 10.644527 0.218078 -6.690331
LeftLeg 0.863986 -0.000000 -0.000000
LeftFoot -16.246486 9.617980 -16.294993
LeftToeBase 20.086432 -0.000000 -0.000000
RightUpLeg 7.585021 -11.304421 4.911842
RightLeg 7.513927 -0.000000 -0.000000
RightFoot -17.100789 -7.764655 14.903680
RightToeBase 9.355665 -0.000000 -0.000000
3631
root 4.844071 32.116344 4.626231 -2.058605 0.022227 0.699342
Spine 2.022920 6.830003 -1.031477
Head -5.217889 -8.750497 4.918459
LeftShoulder -13.670006 -4.621008 36.568632
LeftArm 11.771353 -17.276181 -52.235631
LeftForeArm 11.848058 0.000000 16.745273
LeftHand 7.339154 -0.000000 1.697903
LeftHandThumb1 -26.253704 0.000000 33.147579
RightShoulder -20.100421 -20.130215 -39.484046
RightArm 13.796260 22.700529 46.144130
RightForeArm -14.199545 -0.000000 8.977868
RightHand 18.445896 -0.000000 8.835853
RightHandThumb1 -24.326973 -0.000000 -32.862282
LeftUpLeg 10.674605 0.320912 -6.662619
LeftLeg 0.872139 -0.000000 -0.000000
LeftFoot -16.277051 9.456247 -16.551471
LeftToeBase 20.360576 -0.000000 -0.000000
RightUpLeg 7.589835 -11.299065 4.913458
RightLeg 7.572445 -0.000000 -0.000000
RightFoot -17.114599 -7.788208 14.895772
RightToeBase 9.378146 -0.000000 -0.000000
3632
root 4.837882 32.117409 4.621024 -2.106138 0.035784 0.705596
Spine 2.038032 6.825483 -1.069731
Head -5.160714 -8.797663 4.965040
LeftShoulder -13.623050 -4.900765 36.730384
LeftArm 12.237509 -17.121593 -51.833936
LeftForeArm 11.536239 0.000000 14.978296
LeftHand 7.672741 -0.000000 1.521442
LeftHandThumb1 -26.253704 0.000000 33.147579
RightShoulder -20.063530 -20.176971 -39.526984
RightArm 13.986582 22.967470 46.085588
RightForeArm -14.243399 -0.000000 8.704144
RightHand 18.307915 -0.000000 8.826215
RightHandThumb1 -24.326973 -0.000000 -32.862282
LeftUpLeg 10.698114 0.397388 -6.637910
LeftLeg 0.891189 -0.000000 -0.000000
LeftFoot -16.268485 9.391642 -16.475372
LeftToeBase 20.466594 -0.000000 -0.000000
RightUpLeg 7.602534 -11.259220 4.925134
RightLeg 7.618069 -0.000000 -0.000000
RightFoot -17.138828 -7.865082 14.900884
RightToeBase 9.358091 -0.000000 -0.000000
3633
root 4.831782 32.118097 4.616452 -2.164694 0.037273 0.700496
Spine 2.075353 6.807340 -1.087239
Head -5.122192 -8.819723 4.977285
LeftShoulder -13.561612 -5.200474 36.907955
LeftArm 12.653855 -17.026934 -51.452903
LeftForeArm 11.346867 -0.000000 13.209475
LeftHand 8.012267 -0.000000 1.443447
LeftHandThumb1 -26.253704 0.000000 33.147579
RightShoulder -20.047005 -20.093851 -39.557797
RightArm 14.129871 23.074750 45.912456
RightForeArm -14.277009 -0.000000 8.350398
RightHand 18.465266 -0.000000 8.912211
RightHandThumb1 -24.326973 -0.000000 -32.862282
LeftUpLeg 10.733237 0.489603 -6.609148
LeftLeg 0.925221 -0.000000 -0.000000
LeftFoot -16.196918 9.348236 -16.297981
LeftToeBase 20.111118 -0.000000 -0.000000
RightUpLeg 7.623425 -11.228423 4.940938
RightLeg 7.671465 -0.000000 -0.000000
RightFoot -17.132474 -7.924072 14.869842
RightToeBase 9.277402 -0.000000 -0.000000
3634
root 4.826196 32.119018 4.609575 -2.204044 0.055290 0.714352
Spine 2.100231 6.782563 -1.150564
Head -5.094693 -8.780116 5.006594
LeftShoulder -13.543800 -5.436349 37.097425
LeftArm 13.198642 -16.918608 -51.109344
LeftForeArm 11.048992 -0.000000 11.367120
LeftHand 8.233765 0.000000 1.455539
LeftHandThumb1 -26.253704 0.000000 33.147579
RightShoulder -20.053422 -19.947230 -39.615927
RightArm 14.231983 23.199587 45.807149
RightForeArm -14.475323 0.000000 8.111659
RightHand 18.380409 0.000000 8.955641
RightHandThumb1 -24.326973 -0.000000 -32.862282
LeftUpLeg 10.740479 0.594657 -6.584710
LeftLeg 0.955794 -0.000000 -0.000000
LeftFoot -16.229558 9.205734 -16.451222
LeftToeBase 20.437130 -0.000000 -0.000000
RightUpLeg 7.609324 -11.194505 4.945618
RightLeg 7.745271 -0.000000 -0.000000
RightFoot -17.143053 -7.989944 14.854068
RightToeBase 9.215468 -0.000000 -0.000000
3635
root 4.818833 32.118916 4.606741 -2.249842 0.049618 0.723267
Spine 2.106412 6.785875 -1.196383
Head -5.076557 -8.890381 5.086808
LeftShoulder -13.394140 -5.560028 37.242967
LeftArm 13.674739 -16.937150 -50.733406
LeftForeArm 10.756427 -0.000000 9.622665
LeftHand 8.374529 -0.000000 1.357035
LeftHandThumb1 -26.253704 0.000000 33.147579
RightShoulder -20.043833 -19.839759 -39.691410
RightArm 14.343296 23.136008 45.667952
RightForeArm -14.526969 -0.000000 7.850101
RightHand 18.303243 -0.000000 8.860153
RightHandThumb1 -24.326973 -0.000000 -32.862282
LeftUpLeg 10.798060 0.653846 -6.567653
LeftLeg 0.926516 -0.000000 -0.000000
LeftFoot -16.190265 9.102745 -16.570263
LeftToeBase 20.341361 -0.000000 -0.000000
RightUpLeg 7.611145 -11.154841 4.950658
RightLeg 7.821044 -0.000000 -0.000000
RightFoot -17.200464 -8.034756 14.874525
RightToeBase 9.263305 -0.000000 -0.000000
3636
root 4.812587 32.118944 4.601942 -2.298270 0.041197 0.728497
Spine 2.127123 6.771872 -1.250114
Head -5.024532 -8.857819 5.120081
LeftShoulder -13.297199 -5.816070 37.452547
LeftArm 14.062077 -16.837967 -50.361066
LeftForeArm 10.558521 -0.000000 7.860333
LeftHand 8.519976 0.000000 1.500170
LeftHandThumb1 -26.253704 0.000000 33.147579
RightShoulder -20.017420 -19.738606 -39.739314
RightArm 14.419756 23.260091 45.579381
RightForeArm -14.807599 -0.000000 7.692802
RightHand 18.338266 0.000000 8.886751
RightHandThumb1 -24.326973 -0.000000 -32.862282
LeftUpLeg 10.850255 0.738008 -6.543051
LeftLeg 0.904294 -0.000000 -0.000000
LeftFoot -16.178405 9.022769 -16.500279
LeftToeBase 20.580170 -0.000000 -0.000000
RightUpLeg 7.611829 -11.115350 4.961014
RightLeg 7.890115 -0.000000 -0.000000
RightFoot -17.208997 -8.094882 14.813733
RightToeBase 9.191296 -0.000000 -0.000000
3637
root 4.807348 32.118902 4.596961 -2.350240 0.041099 0.734184
Spine 2.140995 6.737840 -1.277297
Head -4.988701 -8.934892 5.182492
LeftShoulder -13.196047 -6.031686 37.630769
LeftArm 14.475272 -16.762233 -50.010101
LeftForeArm 10.240973 -0.000000 6.079617
LeftHand 8.603151 -0.000000 1.366745
LeftHandThumb1 -26.253704 0.000000 33.147579
RightShoulder -19.943052 -19.682879 -39.802157
RightArm 14.492576 23.264192 45.432465
RightForeArm -14.798239 0.000000 7.483260
RightHand 18.488082 -0.000000 8.836011
RightHandThumb1 -24.326973 -0.000000 -32.862282
LeftUpLeg 10.894733 0.811821 -6.522907
LeftLeg 0.886891 -0.000000 -0.000000
LeftFoot -16.139129 8.987429 -16.470841
LeftToeBase 20.511733 -0.000000 -0.000000
RightUpLeg 7.616875 -11.063435 4.971517
RightLeg 7.961562 -0.000000 -0.000000
RightFoot -17.246055 -8.173988 14.801005
RightToeBase 9.194822 -0.000000 -0.000000
3638
root 4.801485 32.118921 4.590796 -2.396165 0.047739 0.735638
Spine 2.163605 6.658887 -1.316738
Head -4.946953 -8.897689 5.200955
LeftShoulder -13.152459 -6.258856 37.843003
LeftArm 14.869872 -16.648713 -49.687002
LeftForeArm 9.969456 -0.000000 4.317623
LeftHand 8.733766 -0.000000 1.253570
LeftHandThumb1 -26.253704 0.000000 33.147579
RightShoulder -19.870333 -19.703067 -39.828511
RightArm 14.626715 23.420816 45.380325
RightForeArm -14.927808 0.000000 7.412070
RightHand 18.382694 0.000000 8.953048
RightHandThumb1 -24.326973 -0.000000 -32.862282
LeftUpLeg 10.888518 0.855360 -6.511504
LeftLeg 0.980089 -0.000000 -0.000000
LeftFoot -16.097995 8.959886 -16.368330
LeftToeBase 19.965495 -0.000000 -0.000000
RightUpLeg 7.613574 -11.018096 4.985950
RightLeg 8.034206 -0.000000 -0.000000
RightFoot -17.292985 -8.235500 14.835814
RightToeBase 9.293117 -0.000000 -0.000000
3639
root 4.797467 32.119277 4.581995 -2.425419 0.042741 0.735616
Spine 2.169750 6.600189 -1.340037
Head -4.912902 -8.883879 5.215678
LeftShoulder -13.064152 -6.387276 38.009478
LeftArm 15.284744 -16.744985 -49.411875
LeftForeArm 9.806044 -0.000000 2.646444
LeftHand 8.766515 -0.000000 1.253876
LeftHandThumb1 -26.253704 0.000000 33.147579
RightShoulder -19.829556 -19.687469 -39.806506
RightArm 14.800286 23.376808 45.182868
RightForeArm -14.908419 -0.000000 7.179187
RightHand 18.446956 -0.000000 9.010295
RightHandThumb1 -24.326973 -0.000000 -32.862282
LeftUpLeg 10.846261 0.880412 -6.499850
LeftLeg 1.104110 -0.000000 -0.000000
LeftFoot -16.230940 8.883915 -16.528805
LeftToeBase 20.465416 -0.000000 -0.000000
RightUpLeg 7.583959 -10.959978 5.006132
RightLeg 8.113690 -0.000000 -0.000000
RightFoot -17.308767 -8.303143 14.810702
RightToeBase 9.229430 -0.000000 -0.000000
3640
root 4.791583 32.119216 4.576604 -2.462842 0.037124 0.741842
Spine 2.188282 6.570642 -1.395252
Head -4.876649 -8.772464 5.212448
LeftShoulder -12.986964 -6.547445 38.227473
LeftArm 15.670366 -17.133558 -49.268194
LeftForeArm 9.874018 -0.000000 1.123414
LeftHand 8.791686 -0.000000 1.130797
LeftHandThumb1 -26.253704 0.000000 33.147579
RightShoulder -19.854193 -19.591866 -39.798214
RightArm 14.931329 23.222504 45.005887
RightForeArm -14.800723 -0.000000 6.955387
RightHand 18.528745 -0.000000 8.945722
RightHandThumb1 -24.326973 -0.000000 -32.862282
LeftUpLeg 10.857955 0.948817 -6.479508
LeftLeg 1.121063 -0.000000 -0.000000
LeftFoot -16.225057 8.866303 -16.419718
LeftToeBase 20.589387 -0.000000 -0.000000
RightUpLeg 7.575373 -10.869265 5.023977
RightLeg 8.178512 -0.000000 -0.000000
RightFoot -17.357256 -8.382296 14.830902
RightToeBase 9.213530 -0.000000 -0.000000
3641
root 4.788458 32.119000 4.569614 -2.489593 0.021901 0.744027
Spine 2.189402 6.510920 -1.404878
Head -4.855460 -8.761708 5.195657
LeftShoulder -12.780465 -7.151141 38.540106
LeftArm 15.374367 -17.027337 -48.906385
LeftForeArm 9.802986 -0.000000 -0.239017
LeftHand 9.368108 -0.000000 0.905569
LeftHandThumb1 -26.253704 0.000000 33.147579
RightShoulder -19.823069 -19.405615 -39.923087
RightArm 14.999150 23.075426 44.895610
RightForeArm -14.809956 -0.000000 6.781799
RightHand 18.515051 -0.000000 8.894716
RightHandThumb1 -24.326973 -0.000000 -32.862282
LeftUpLeg 10.858935 1.002132 -6.472132
LeftLeg 1.149341 -0.000000 -0.000000
LeftFoot -16.165115 8.861039 -16.273636
LeftToeBase 20.283206 -0.000000 -0.000000
RightUpLeg 7.564724 -10.817448 5.037827
RightLeg 8.219822 -0.000000 -0.000000
RightFoot -17.375832 -8.448695 14.822896
RightToeBase 9.148725 -0.000000 -0.000000
3642
root 4.784492 32.119865 4.561227 -2.517622 -0.004192 0.747174
Spine 2.199223 6.475571 -1.429762
Head -4.843076 -8.728659 5.196841
LeftShoulder -12.815242 -7.018972 38.606888
LeftArm 16.045900 -17.316868 -48.754255
LeftForeArm 9.761382 -0.000000 -1.657813
LeftHand 9.496867 -0.000000 0.894415
LeftHandThumb1 -26.253704 0.000000 33.147579
RightShoulder -19.787901 -19.283302 -39.959242
RightArm 15.043048 22.930848 44.727440
RightForeArm -14.735809 -0.000000 6.726195
RightHand 18.304006 -0.000000 9.099135
RightHandThumb1 -24.326973 -0.000000 -32.862282
LeftUpLeg 10.861090 1.015557 -6.469607
LeftLeg 1.185547 -0.000000 -0.000000
LeftFoot -16.242003 8.799645 -16.521612
LeftToeBase 20.452013 -0.000000 -0.000000
RightUpLeg 7.543318 -10.732750 5.053712
RightLeg 8.285551 -0.000000 -0.000000
RightFoot -17.399434 -8.520519 14.841379
RightToeBase 9.147529 -0.000000 -0.000000
